<?xml version="1.0" encoding="UTF-8"?>
<!-- Generator: visioncortex VTracer 0.6.2 -->
<svg version="1.1" xmlns="http://www.w3.org/2000/svg" width="1280" height="1276">
<path d="M0 0 C83.07039151 -0.08570446 166.14078837 -0.16520092 249.21121216 -0.2117157 C250.44083774 -0.21240598 251.67046333 -0.21309627 252.93735029 -0.21380747 C279.66094242 -0.22877229 306.38453501 -0.24262316 333.1081283 -0.25532665 C346.21352444 -0.26156329 359.31892045 -0.26804606 372.42431641 -0.2746582 C374.38052468 -0.2756389 374.38052468 -0.2756389 376.37625232 -0.2766394 C418.64103562 -0.29794308 460.90578549 -0.33549735 503.17054853 -0.3814861 C546.60599077 -0.4286628 590.0414145 -0.45943041 633.47688192 -0.46957495 C639.61296654 -0.47101571 645.74905111 -0.47264389 651.88513565 -0.47438622 C653.09279556 -0.47472333 654.30045546 -0.47506045 655.54471112 -0.47540778 C674.97841487 -0.48131451 694.41206137 -0.50449983 713.84574178 -0.53416017 C733.38696386 -0.56361541 752.92812924 -0.57483512 772.46937273 -0.56750689 C784.07671785 -0.56370636 795.68385529 -0.57382154 807.29116287 -0.60398772 C815.05125542 -0.62277589 822.81121241 -0.62329116 830.57131441 -0.60915907 C834.98888301 -0.60163101 839.40605964 -0.60184755 843.82358573 -0.62441591 C877.40103914 -0.78609808 877.40103914 -0.78609808 892 5 C893.41020678 5.5359006 893.41020678 5.5359006 894.84890258 6.08262748 C896.91854381 6.903062 898.88770262 7.81101908 900.875 8.8125 C901.91865723 9.32441895 901.91865723 9.32441895 902.98339844 9.84667969 C927.34997515 22.08052111 948.51300675 43.95296063 957.4140625 70 C958.70571765 73.97606354 959.90193027 77.96653912 961 82 C961.34716061 83.22424161 961.69432121 84.44848323 962.05200183 85.70982307 C963.61712731 92.90376572 963.27142118 100.27695255 963.24609566 107.5998621 C963.24757605 109.30213709 963.2499344 111.00441149 963.25308865 112.7066842 C963.25922164 117.39118367 963.25288067 122.07559622 963.24453239 126.76008922 C963.23766074 131.85378025 963.2424062 136.94746251 963.24568737 142.04115528 C963.24983513 150.97053275 963.24654678 159.89988358 963.23841095 168.82925797 C963.22634682 182.10693302 963.22573879 195.38459125 963.22749493 208.66227078 C963.23012363 230.9968278 963.22345103 253.33137314 963.21146011 275.66592598 C963.1996141 297.78343322 963.19190972 319.90093558 963.18975449 342.01844597 C963.18965125 343.04887806 963.18965125 343.04887806 963.18954593 344.10012697 C963.18891953 350.37442575 963.18834415 356.64872453 963.18782998 362.92302332 C963.18655121 378.52003462 963.18463258 394.1170458 963.18227959 409.71405697 C963.18217295 410.42430037 963.18206632 411.13454376 963.18195645 411.86630969 C963.17671376 446.41323499 963.16409878 480.96015707 963.15087891 515.50708008 C963.14629557 527.49521889 963.14174484 539.48335771 963.1373291 551.47149658 C963.13691825 552.58675913 963.13691825 552.58675913 963.13649911 553.72455223 C963.12381028 588.29022452 963.11635955 622.85589736 963.11025951 657.42157137 C963.10986338 659.66567935 963.109465 661.90978733 963.10906615 664.15389531 C963.10642658 679.02575144 963.10387729 693.89760759 963.10138843 708.76946375 C963.09643547 738.36061212 963.0909521 767.9517604 963.08510434 797.54290861 C963.08482586 798.95210724 963.08454775 800.36130587 963.08427001 801.77050451 C963.06731343 887.78469628 963.03899947 973.79888449 963 1083 C962.01 1082.67 961.02 1082.34 960 1082 C960 1081.34 960 1080.68 960 1080 C959.0409375 1079.5978125 959.0409375 1079.5978125 958.0625 1079.1875 C956 1078 956 1078 955 1075 C954.34 1074.67 953.68 1074.34 953 1074 C951 1073 951 1073 950 1070 C949.34 1069.67 948.68 1069.34 948 1069 C946 1068 946 1068 945 1065 C944.01 1064.67 943.02 1064.34 942 1064 C938.86996295 1061.17533241 936.86436281 1058.72872563 935 1055 C934.01 1054.67 933.02 1054.34 932 1054 C929.3125 1051.5625 929.3125 1051.5625 927 1049 C927 1048.34 927 1047.68 927 1047 C926.0409375 1046.5978125 926.0409375 1046.5978125 925.0625 1046.1875 C923 1045 923 1045 922 1042 C921.34 1041.67 920.68 1041.34 920 1041 C918 1040 918 1040 917 1037 C916.34 1036.67 915.68 1036.34 915 1036 C913 1035 913 1035 912 1032 C911.34 1031.67 910.68 1031.34 910 1031 C908 1030 908 1030 907 1027 C906.34 1026.67 905.68 1026.34 905 1026 C903 1025 903 1025 902 1022 C901.34 1021.67 900.68 1021.34 900 1021 C898 1020 898 1020 897 1017 C895.6847633 1016.29830587 894.34840436 1015.63563189 893 1015 C891.25680429 1013.50750262 891.25680429 1013.50750262 889.47194386 1011.72362614 C888.78678442 1011.04368219 888.10162498 1010.36373825 887.39570314 1009.66318995 C886.65086771 1008.91389308 885.90603229 1008.16459622 885.1386261 1007.39259338 C884.34118223 1006.5982695 883.54373836 1005.80394561 882.72212952 1004.9855513 C880.04214064 1002.31356111 877.36938248 999.63445298 874.6965332 996.95532227 C872.78050044 995.04089812 870.86298007 993.12796642 868.94554138 991.21495056 C864.27183299 986.55014467 859.60355949 981.87993601 854.93719802 977.20778192 C851.14098519 973.40705219 847.34282459 969.60827923 843.54326439 965.81089592 C843.00243405 965.27037205 842.46160371 964.72984818 841.90438458 964.1729448 C840.80559476 963.07479444 839.70680046 961.97664857 838.60800173 960.87850713 C828.29726324 950.57347542 817.99266945 940.26231677 807.69015714 929.9490618 C798.86468656 921.11467312 790.03401031 912.28551644 781.19946289 903.46020508 C770.93393019 893.20539948 760.67168142 882.9473256 750.41457433 872.68409199 C749.31832521 871.5872058 748.22207193 870.49032378 747.12581444 869.39344597 C746.31683556 868.58400426 746.31683556 868.58400426 745.49151367 867.7582102 C741.70542014 863.97039571 737.91702285 860.18489495 734.12771034 856.40030098 C729.49928215 851.77750955 724.87449029 847.1511157 720.25418053 842.52020968 C717.90013079 840.16093786 715.54404991 837.80379967 713.18459702 835.44992447 C690.20951427 812.52412962 690.20951427 812.52412962 683.125 800.5 C682.74915771 799.86980957 682.37331543 799.23961914 681.98608398 798.59033203 C679.3557684 794.01410492 677.6265459 789.55735162 676.53515625 784.3671875 C676.07108108 781.96230899 676.07108108 781.96230899 674.98754883 779.70507812 C670.36134369 767.0330502 673.35678329 748.3212156 678 736 C678.37382813 734.97390625 678.74765625 733.9478125 679.1328125 732.890625 C684.40000895 719.42613605 691.76377843 708.29858892 700.51855469 696.94482422 C702.72327803 694.05048899 704.83581841 691.09460859 706.9375 688.125 C707.75379314 686.97518011 708.57020182 685.82544224 709.38671875 684.67578125 C709.80614746 684.08490723 710.22557617 683.4940332 710.65771484 682.88525391 C717.73992927 672.93820775 724.93113996 663.07050412 732.1875 653.25 C737.00285057 646.73275702 741.75864444 640.17886726 746.453125 633.57421875 C749.38542733 629.45110426 752.34848276 625.35034806 755.3125 621.25 C755.86043213 620.49195068 756.40836426 619.73390137 756.97290039 618.95288086 C758.09072453 617.40666903 759.20864504 615.86052687 760.32666016 614.31445312 C763.59324207 609.79633282 766.85723964 605.27634345 770.11987305 600.75537109 C772.84780697 596.97608446 775.57991408 593.19994792 778.3203125 589.4296875 C809.85943874 546.00066378 833.41013534 500.87362795 841 447 C841.10441406 446.3184082 841.20882812 445.63681641 841.31640625 444.93457031 C845.1087233 419.72046233 843.65051473 393.61343709 840.28125 368.46240234 C839.95744746 365.62744366 839.88224123 362.85074349 840 360 C839.67 360 839.34 360 839 360 C838.93941406 359.32453125 838.87882812 358.6490625 838.81640625 357.953125 C838.73261719 357.06109375 838.64882812 356.1690625 838.5625 355.25 C838.48128906 354.36828125 838.40007813 353.4865625 838.31640625 352.578125 C837.91718394 349.32520249 837.21610324 346.54025809 836 343.5 C834.59834073 339.99585183 833.88120316 336.43814873 833.125 332.75 C832.3067541 329.05586043 831.21999748 325.62707698 829.828125 322.11328125 C828.94721729 319.8653045 828.16538258 317.59383152 827.375 315.3125 C824.93381671 308.52505314 822.00025663 301.94344024 819.08544922 295.34887695 C818.51141357 294.03536255 818.51141357 294.03536255 817.92578125 292.6953125 C817.57942627 291.91172363 817.23307129 291.12813477 816.8762207 290.32080078 C815.96042924 287.89519096 815.43898043 285.55145026 815 283 C814.34 283 813.68 283 813 283 C812.52433594 282.05253906 812.52433594 282.05253906 812.0390625 281.0859375 C801.02429749 259.9692333 784.70005241 241.59458405 766 227 C765.20625977 226.37569092 765.20625977 226.37569092 764.39648438 225.73876953 C715.63807148 187.68027862 651.94625061 169.13083527 591 164 C590.03852051 163.91242432 589.07704102 163.82484863 588.08642578 163.73461914 C576.27986714 162.79154145 564.47087274 162.81389905 552.63330078 162.81469727 C549.0353594 162.81252138 545.43773077 162.79433723 541.83984375 162.77539062 C527.11657238 162.73918306 512.6362359 163.40808494 498 165 C497.29862915 165.07334564 496.5972583 165.14669128 495.87463379 165.22225952 C448.83428577 170.16481916 402.70923674 182.58711245 360 203 C359.17983398 203.38623535 358.35966797 203.7724707 357.51464844 204.17041016 C344.7327696 210.21495719 332.74211932 217.12735157 321 225 C320.35305176 225.433125 319.70610352 225.86625 319.03955078 226.3125 C310.4021461 232.15444346 302.42680807 238.64176882 294.62988281 245.55810547 C293.09440012 246.91648785 291.54375031 248.25767019 289.9921875 249.59765625 C283.58123355 255.23179544 278.25073863 261.28801685 273 268 C272.35675781 268.75410156 271.71351563 269.50820313 271.05078125 270.28515625 C242.99949276 303.45736962 233.66249023 344.64189723 233.74171448 387.01422119 C233.73885583 389.42836234 233.73511565 391.84250258 233.73057598 394.25664115 C233.72270892 399.48211455 233.72090818 404.70755269 233.72458839 409.93302917 C233.73000753 417.7036017 233.72385584 425.47413575 233.71529961 433.24470395 C233.70116166 446.32290948 233.69578688 459.40110421 233.69503975 472.47931671 C233.69385867 490.34076168 233.67863355 508.202176 233.65954458 526.06360981 C233.65064773 534.39492352 233.64237746 542.72623787 233.63422298 551.05755234 C233.63299636 552.30834849 233.63299636 552.30834849 233.63174495 553.58441325 C233.61242768 573.40946274 233.59887381 593.23451532 233.58666992 613.05957031 C233.58613313 613.92646316 233.58559634 614.793356 233.58504328 615.68651832 C233.57254299 635.92048735 233.5617614 656.15445675 233.55297852 676.38842773 C233.54990821 683.41292319 233.54681596 690.43741863 233.54370117 697.46191406 C233.54331936 698.32894154 233.54293754 699.19596901 233.54254416 700.08927004 C233.53377922 719.88939157 233.52261952 739.68950655 233.50257015 759.48962021 C233.50130616 760.7382465 233.50130616 760.7382465 233.50001662 762.01209756 C233.49153323 770.32285735 233.48253802 778.63361645 233.47282485 786.94437489 C233.46806361 791.03298227 233.46344811 795.12158979 233.45893669 799.21019745 C233.45804881 800.01480425 233.45716093 800.81941105 233.45624614 801.64839987 C233.44232513 814.58843265 233.43967326 827.52844445 233.44161635 840.46848359 C233.44341203 853.47012537 233.43475456 866.47172499 233.41530795 879.4733527 C233.40411023 887.19386898 233.40129898 894.91428298 233.4105043 902.63480244 C233.41646971 908.40265028 233.40682808 914.17038867 233.39118993 919.93821451 C233.38730857 922.26902168 233.38848034 924.59984396 233.39524681 926.93064454 C233.45689589 949.9975489 229.57802852 967.05060507 213 984 C185.35809225 1010.22664207 142.90045408 1016.04734816 106.41650391 1015.09326172 C72.53050278 1013.78547707 39.26181924 1006.74714159 15.1875 981.0625 C11.1193194 976.38300067 7.94842479 971.44031929 5 966 C4.13375 964.515 4.13375 964.515 3.25 963 C1.75361466 959.40867519 1.08149447 955.89929649 0.4296875 952.07421875 C0.20182695 950.01883705 0.20182695 950.01883705 -1 949 C-1.09627847 946.93212966 -1.12024082 944.86089473 -1.11778647 942.79078573 C-1.11837013 942.13049611 -1.11895378 941.4702065 -1.11955513 940.78990811 C-1.12029097 938.54526593 -1.11380217 936.30069996 -1.10743046 934.05606747 C-1.1064633 932.43645103 -1.10593548 930.81683428 -1.10581067 929.19721755 C-1.10417023 924.70494099 -1.09621983 920.2126935 -1.08732699 915.72042623 C-1.07877371 910.84900055 -1.07599261 905.97757119 -1.07250541 901.10613972 C-1.06557646 892.5545966 -1.05490304 884.00306439 -1.04183006 875.45152855 C-1.0224075 862.73556023 -1.00868722 850.01959031 -0.99616829 837.30361354 C-0.97494979 815.91684988 -0.94905766 794.53009423 -0.92053413 773.14333916 C-0.8922931 751.95702779 -0.86610957 730.77071554 -0.84269524 709.58439827 C-0.84124015 708.26882392 -0.83978506 706.95324956 -0.83828588 705.59780932 C-0.83238851 700.25808766 -0.82650664 694.91836598 -0.82065109 689.57864428 C-0.80428073 674.65067323 -0.78759013 659.72270255 -0.77068233 644.79473209 C-0.76991256 644.11486972 -0.76914279 643.43500734 -0.76834969 642.73454307 C-0.73085697 609.64569806 -0.68967515 576.55685778 -0.64819336 543.46801758 C-0.6337964 531.98234054 -0.61941574 520.49666347 -0.60510254 509.01098633 C-0.60421484 508.29866449 -0.60332715 507.58634265 -0.60241255 506.8524353 C-0.56118483 473.75179492 -0.5225741 440.65115165 -0.48464044 407.55050736 C-0.48217836 405.40216067 -0.47971516 403.25381398 -0.47725173 401.10546729 C-0.46092853 386.86852042 -0.44465048 372.63157351 -0.42840267 358.39462656 C-0.39607187 330.06550549 -0.36347574 301.73638473 -0.33069739 273.40726417 C-0.32913633 272.05809157 -0.32757545 270.70891897 -0.32601476 269.35974636 C-0.22214933 179.57315847 -0.11163232 89.78657854 0 0 Z M842 371 C843 373 843 373 843 373 Z M843 379 C844 382 844 382 844 382 Z M844 390 C845 393 845 393 845 393 Z M844 428 C845 431 845 431 845 431 Z M843 438 C844 442 844 442 844 442 Z M842 447 C843 449 843 449 843 449 Z M840 459 C841 461 841 461 841 461 Z M838 469 C839 471 839 471 839 471 Z M675 751 C676 753 676 753 676 753 Z M675 775 C676 777 676 777 676 777 Z " fill="#54A2D5" transform="translate(317,0)"/>
<path d="M0 0 C0.83496002 0.00141495 1.66992004 0.0028299 2.53018188 0.00428772 C5.17901292 0.00985451 7.8277573 0.02240078 10.4765625 0.03515625 C12.27994669 0.04017555 14.08333221 0.0447377 15.88671875 0.04882812 C20.29169971 0.05981305 24.69661644 0.07705462 29.1015625 0.09765625 C29.10211866 0.92185944 29.10267483 1.74606263 29.10324784 2.59524168 C29.1638746 92.33650915 29.22695868 182.07777479 29.30288696 271.81903076 C29.30403204 273.17329211 29.30517711 274.52755346 29.30632219 275.88181481 C29.33036818 304.31023903 29.35482227 332.73866289 29.37974755 361.16708636 C29.39226855 375.44834587 29.40471115 389.72960545 29.41707963 404.01086509 C29.41894578 406.16509356 29.42081417 408.31932203 29.42268266 410.47355049 C29.4514234 443.63228788 29.47848647 476.79102559 29.50067139 509.94976807 C29.50114815 510.66231379 29.50162491 511.37485951 29.50211612 512.10899753 C29.50979236 523.59680821 29.51732736 535.08461898 29.52484361 546.57242977 C29.54650385 579.67459007 29.56921433 612.77674815 29.59882545 645.87890244 C29.59973875 646.90072354 29.59973875 646.90072354 29.6006705 647.94318749 C29.61405765 662.90015489 29.62798152 677.85712173 29.64241305 692.81408815 C29.64821102 698.832945 29.65393069 704.85180193 29.65962601 710.87065887 C29.66087431 712.18745282 29.66212262 713.50424677 29.66340875 714.86094357 C29.68330475 736.04974859 29.69636204 757.23855257 29.70685578 778.42736411 C29.71755407 799.7340653 29.7354717 821.04075075 29.76072954 842.34743974 C29.77551332 855.0029702 29.78479074 867.65847659 29.78612933 880.31401577 C29.78757049 888.77537415 29.79624708 897.23670545 29.81071842 905.69805152 C29.81875126 910.51439807 29.8237223 915.33069151 29.81984131 920.14704445 C29.73517999 952.12435221 29.73517999 952.12435221 33.9140625 983.78515625 C34.08655518 984.65342041 34.25904785 985.52168457 34.43676758 986.41625977 C46.01502829 1042.77962524 80.52909736 1092.17581764 128.28564453 1123.74926758 C145.49825043 1134.93071351 163.54287652 1143.69854451 182.87109375 1150.5703125 C186.0446362 1151.69962059 189.13822258 1152.93761234 192.2265625 1154.28515625 C199.2094631 1157.15755508 206.75403037 1158.47081182 214.1015625 1160.09765625 C214.73489502 1160.25741943 215.36822754 1160.41718262 216.02075195 1160.58178711 C248.99324451 1168.75624173 282.96990129 1171.52356013 316.8515625 1171.41015625 C318.56670547 1171.40742203 318.56670547 1171.40742203 320.3164978 1171.40463257 C396.96480635 1171.20052075 480.34318194 1157.81343786 540.1015625 1106.09765625 C540.89433594 1105.41574219 541.68710937 1104.73382812 542.50390625 1104.03125 C545.08059231 1101.76359923 547.59833599 1099.44622939 550.1015625 1097.09765625 C550.62621094 1096.60700684 551.15085937 1096.11635742 551.69140625 1095.61083984 C587.69928554 1061.65075276 611.35865711 1011.29958968 613.19377558 961.6003115 C613.22994994 959.10767828 613.23731922 956.61686191 613.23184776 954.12397575 C613.23379119 953.17932921 613.23573462 952.23468267 613.23773694 951.26141047 C613.24302714 948.11402846 613.24129973 944.96669082 613.23959351 941.81930542 C613.2420136 939.53266289 613.24487649 937.24602079 613.24814284 934.95937932 C613.25587539 928.68917692 613.25751415 922.41898549 613.25819397 916.14877892 C613.25984794 910.07655214 613.2661856 904.004332 613.27251543 897.9321086 C613.28457438 886.27246372 613.29324528 874.61281943 613.29955357 862.95317012 C613.30960405 844.43844959 613.32886673 825.92374737 613.35109596 807.40903787 C613.35962513 800.27847073 613.36789197 793.14790329 613.37619972 786.01733589 C613.37712473 785.22517685 613.37804974 784.43301781 613.37900278 783.61685396 C613.40098101 764.77126387 613.42077766 745.92567176 613.43945312 727.08007812 C613.4402728 726.25577508 613.44109248 725.43147204 613.441937 724.58219012 C613.46101717 705.35502718 613.47798067 686.12786435 613.49029541 666.9006958 C613.49082508 666.07397329 613.49135475 665.24725078 613.49190046 664.39547607 C613.49615215 657.73154968 613.5003284 651.06762325 613.50448526 644.4036968 C613.52169823 616.90367006 613.54892841 589.40366843 613.58764564 561.90366327 C613.59310698 558.01686214 613.59844003 554.13006085 613.60368729 550.24325943 C613.60472167 549.47836861 613.60575605 548.71347779 613.60682177 547.92540846 C613.62311715 535.63790362 613.62867368 523.35041643 613.62998495 511.06290182 C613.63149243 498.7046784 613.64369253 486.34650273 613.66674136 473.98830037 C613.67891009 467.29866042 613.68593416 460.60911842 613.68002892 453.9194622 C613.67471329 447.78787465 613.68327818 441.65646442 613.70258529 435.52490641 C613.70714021 433.3143194 613.70671885 431.10371493 613.70063691 428.8931316 C613.63217914 401.55762435 618.03104042 374.0011324 637.1015625 353.09765625 C637.61847656 352.48921875 638.13539063 351.88078125 638.66796875 351.25390625 C657.94895379 329.99166711 692.63785648 322.52263162 720.1015625 321.09765625 C726.04743171 320.92899464 731.99400167 320.91183003 737.94189453 320.91235352 C740.69970387 320.91017744 743.45710535 320.89199618 746.21484375 320.87304688 C757.32336891 320.83806743 768.11199372 321.46288805 779.1015625 323.09765625 C780.22643066 323.26370361 781.35129883 323.42975098 782.51025391 323.60083008 C785.1015625 324.09765625 785.1015625 324.09765625 786.1015625 325.09765625 C788.08695386 325.32928524 790.07243801 325.56017578 792.05859375 325.78515625 C794.60551343 326.17474243 796.72444644 327.11202276 799.1015625 328.09765625 C800.45539706 328.3803327 801.81268078 328.64667783 803.171875 328.90234375 C808.31897402 330.02249419 812.81860657 331.98570566 817.5390625 334.28515625 C818.7911853 334.89061279 818.7911853 334.89061279 820.06860352 335.50830078 C840.92106523 345.79310038 857.47575816 362.52063474 865.35546875 384.61328125 C877.77514255 425.49279797 867.53111325 468.35921529 848.09277344 505.10205078 C839.53416888 520.72813491 828.08239207 534.63730411 816.7890625 548.34765625 C806.00833078 561.46868916 795.80571052 575.03483208 785.80859375 588.75830078 C784.14225394 591.04189175 782.46642782 593.31825054 780.7890625 595.59375 C753.50142528 632.77146991 728.24962891 673.89583995 713.5390625 717.78515625 C713.13349121 718.98914063 712.72791992 720.193125 712.31005859 721.43359375 C706.85175736 738.28827169 704.88589799 754.64767516 704.9140625 772.28515625 C704.91499908 773.03987213 704.91593567 773.79458801 704.91690063 774.57217407 C705.11381436 847.9317509 740.90748789 909.71336065 791.74316406 960.74560547 C795.05336807 964.02194489 795.05336807 964.02194489 798.39477539 967.26635742 C799.66663532 968.50734593 800.88916774 969.79851073 802.1015625 971.09765625 C802.1015625 971.75765625 802.1015625 972.41765625 802.1015625 973.09765625 C802.7409375 973.36578125 803.3803125 973.63390625 804.0390625 973.91015625 C806.1015625 975.09765625 806.1015625 975.09765625 807.1015625 978.09765625 C808.42563919 978.7825235 809.76065491 979.44635828 811.1015625 980.09765625 C813.3515625 982.09765625 813.3515625 982.09765625 815.1015625 984.09765625 C815.1015625 984.75765625 815.1015625 985.41765625 815.1015625 986.09765625 C815.7409375 986.36578125 816.3803125 986.63390625 817.0390625 986.91015625 C819.1015625 988.09765625 819.1015625 988.09765625 820.1015625 991.09765625 C820.7615625 991.42765625 821.4215625 991.75765625 822.1015625 992.09765625 C822.7615625 992.42765625 823.4215625 992.75765625 824.1015625 993.09765625 C824.4315625 994.08765625 824.7615625 995.07765625 825.1015625 996.09765625 C825.7615625 996.42765625 826.4215625 996.75765625 827.1015625 997.09765625 C827.7615625 997.42765625 828.4215625 997.75765625 829.1015625 998.09765625 C829.4315625 999.08765625 829.7615625 1000.07765625 830.1015625 1001.09765625 C830.7615625 1001.42765625 831.4215625 1001.75765625 832.1015625 1002.09765625 C832.7615625 1002.42765625 833.4215625 1002.75765625 834.1015625 1003.09765625 C834.4315625 1004.08765625 834.7615625 1005.07765625 835.1015625 1006.09765625 C835.7615625 1006.42765625 836.4215625 1006.75765625 837.1015625 1007.09765625 C837.7615625 1007.42765625 838.4215625 1007.75765625 839.1015625 1008.09765625 C839.4315625 1009.08765625 839.7615625 1010.07765625 840.1015625 1011.09765625 C841.41707543 1011.79883237 842.75342611 1012.4614562 844.1015625 1013.09765625 C845.87335205 1014.61547852 845.87335205 1014.61547852 847.67675781 1016.4140625 C848.35716125 1017.08816162 849.0375647 1017.76226074 849.73858643 1018.45678711 C850.82318146 1019.54745483 850.82318146 1019.54745483 851.9296875 1020.66015625 C852.67869324 1021.40724854 853.42769897 1022.15434082 854.19940186 1022.92407227 C855.77862454 1024.50193544 857.35533024 1026.08232124 858.9296875 1027.66503906 C861.34935196 1030.0954359 863.77952439 1032.51495686 866.2109375 1034.93359375 C867.74282947 1036.46680677 869.27410122 1038.00063977 870.8046875 1039.53515625 C871.53584778 1040.26226807 872.26700806 1040.98937988 873.02032471 1041.73852539 C873.68811951 1042.41262451 874.35591431 1043.08672363 875.04394531 1043.78125 C875.63588684 1044.37478271 876.22782837 1044.96831543 876.83770752 1045.57983398 C878.1015625 1047.09765625 878.1015625 1047.09765625 878.1015625 1049.09765625 C878.67958091 1049.35086561 879.25759932 1049.60407496 879.85313344 1049.86495733 C882.36949891 1051.24455211 884.04738931 1052.79277554 886.07642746 1054.82083893 C886.86118887 1055.60038484 887.64595027 1056.37993075 888.45449233 1057.18309927 C889.31052243 1058.04359082 890.16655254 1058.90408237 891.04852295 1059.79064941 C891.96257282 1060.70157931 892.8766227 1061.6125092 893.81837106 1062.55104303 C896.3564066 1065.08071702 898.88815128 1067.61660669 901.4189117 1070.15355611 C904.14875368 1072.88791587 906.88433482 1075.61652339 909.6191864 1078.34587097 C914.97568265 1083.69346508 920.32674702 1089.04646305 925.67589584 1094.40140569 C930.0213873 1098.75140947 934.36882151 1103.09946263 938.717659 1107.44612122 C939.64520439 1108.37320691 939.64520439 1108.37320691 940.59148808 1109.31902161 C941.84756846 1110.57446257 943.10365334 1111.82989902 944.35974267 1113.08533102 C956.14237606 1124.86225896 967.91886699 1136.64531381 979.69327524 1148.43046433 C989.80588112 1158.55201034 999.92372562 1168.66829478 1010.04541016 1178.78076172 C1021.79079 1190.51545035 1033.53293381 1202.25336138 1045.26989484 1213.99647093 C1046.52016871 1215.24738192 1047.77044677 1216.49828872 1049.02072906 1217.74919128 C1049.6359457 1218.36471647 1050.25116234 1218.98024166 1050.88502191 1219.61441913 C1055.2298798 1223.96100709 1059.57706082 1228.30526328 1063.92513275 1232.64863586 C1069.21914512 1237.93705235 1074.50960654 1243.2289901 1079.79547873 1248.52554333 C1082.49470054 1251.23003866 1085.19552859 1253.93287816 1087.90067863 1256.63144493 C1090.82671992 1259.55047263 1093.74501786 1262.47711733 1096.66253662 1265.40466309 C1097.52748961 1266.26515463 1098.3924426 1267.12564618 1099.28360629 1268.01221323 C1100.05793671 1268.79175914 1100.83226713 1269.57130506 1101.6300621 1270.37447357 C1102.30531488 1271.05005105 1102.98056766 1271.72562854 1103.67628264 1272.42167807 C1105.1015625 1274.09765625 1105.1015625 1274.09765625 1105.1015625 1276.09765625 C1071.33016002 1276.11965116 1037.558757 1276.14073856 1003.78735352 1276.16113281 C1003.12645343 1276.161532 1002.46555335 1276.16193119 1001.78462599 1276.16234248 C930.94316648 1276.2051068 860.10170679 1276.24199518 789.26023865 1276.26702881 C787.68595807 1276.26758661 786.1116775 1276.26814442 784.53739692 1276.26870223 C751.48998058 1276.28039396 718.442564 1276.29126071 685.39514708 1276.30117496 C668.79336599 1276.30615639 652.19158496 1276.31129628 635.58980397 1276.31658602 C633.08554933 1276.31738301 630.58129468 1276.31817549 628.07704004 1276.31896777 C589.53298467 1276.33120202 550.98893435 1276.34682652 512.44488525 1276.37231445 C511.61668722 1276.37286205 510.78848919 1276.37340964 509.93519425 1276.37397383 C496.58291039 1276.38282288 483.23062672 1276.39195749 469.87834308 1276.40113001 C431.40120393 1276.42755802 392.92406868 1276.45186082 354.44692135 1276.46221542 C353.25904718 1276.46253663 353.25904718 1276.46253663 352.04717556 1276.46286433 C334.65911551 1276.46752832 317.2710554 1276.4711073 299.88299491 1276.47366018 C292.88571564 1276.47470661 285.88843639 1276.4759091 278.89115715 1276.47716522 C278.12535441 1276.47729893 277.35955168 1276.47743264 276.5705428 1276.4775704 C251.93125654 1276.48194994 227.29199926 1276.49901296 202.65272469 1276.52278508 C177.81502668 1276.54669023 152.97735673 1276.55804057 128.13964694 1276.5521522 C124.70044928 1276.55133998 121.26125161 1276.55067041 117.82205391 1276.55008698 C117.14792518 1276.54996745 116.47379646 1276.54984793 115.77923959 1276.54972479 C104.4974989 1276.54811537 93.21581985 1276.56232755 81.934093 1276.58084642 C72.09713945 1276.59588829 62.26025432 1276.59628119 52.42329599 1276.5849835 C46.8253202 1276.57896709 41.22754232 1276.57910991 35.62958807 1276.59718898 C-2.73878794 1276.71384259 -41.00063984 1275.99295334 -71.8984375 1250.09765625 C-72.40358887 1249.67613281 -72.90874023 1249.25460937 -73.42919922 1248.8203125 C-81.01310259 1242.41686638 -87.55125454 1235.51001733 -92.8984375 1227.09765625 C-92.8984375 1226.43765625 -92.8984375 1225.77765625 -92.8984375 1225.09765625 C-93.5584375 1225.09765625 -94.2184375 1225.09765625 -94.8984375 1225.09765625 C-95.2284375 1223.44765625 -95.5584375 1221.79765625 -95.8984375 1220.09765625 C-96.5584375 1220.09765625 -97.2184375 1220.09765625 -97.8984375 1220.09765625 C-101.22200318 1213.23540737 -104.30217704 1206.53130486 -106.3125 1199.1640625 C-106.88177505 1196.97669913 -106.88177505 1196.97669913 -108.0234375 1194.53515625 C-110.23104473 1188.38539325 -110.0461365 1181.42847528 -110.02838933 1174.9549123 C-110.03028858 1174.18259429 -110.03218782 1173.41027627 -110.03414461 1172.61455468 C-110.03927735 1170.03628875 -110.03735862 1167.45807803 -110.03545189 1164.87980843 C-110.0377098 1163.00080288 -110.04040178 1161.12179781 -110.04348773 1159.24279344 C-110.0507115 1154.06749149 -110.05171701 1148.89220405 -110.0517105 1143.71689774 C-110.05278101 1138.09085622 -110.05957305 1132.46482112 -110.0656172 1126.83878314 C-110.07668616 1115.67484492 -110.08233978 1104.51090984 -110.08632608 1093.34696709 C-110.08980612 1084.06200113 -110.09560513 1074.7770385 -110.10301208 1065.49207497 C-110.10354318 1064.82340088 -110.10407427 1064.1547268 -110.10462146 1063.46578986 C-110.10678822 1060.74233583 -110.10896485 1058.0188818 -110.1111554 1055.29542779 C-110.13764506 1022.29357007 -110.15321979 989.29171001 -110.16631828 956.28984465 C-110.1705695 945.58722476 -110.17513716 934.88460505 -110.1799016 924.18198538 C-110.20481027 868.09707124 -110.22686904 812.01215658 -110.23909198 755.9272381 C-110.23998935 751.82266499 -110.24090405 747.71809188 -110.24181972 743.61351877 C-110.24200133 742.79931162 -110.24218294 741.98510448 -110.24237006 741.1462244 C-110.2442127 732.89732466 -110.24607857 724.64842494 -110.24796815 716.39952521 C-110.2483462 714.74561195 -110.24872249 713.0916987 -110.24909703 711.43778544 C-110.26112577 658.32577292 -110.29081309 605.21379318 -110.33251214 552.10179611 C-110.3624686 513.93492532 -110.39009353 475.76806126 -110.39978981 437.60117912 C-110.39999037 436.81598928 -110.40019092 436.03079944 -110.40039756 435.22181596 C-110.4047485 417.98348432 -110.40769402 400.7451527 -110.40932407 383.50682059 C-110.4100004 376.5705146 -110.41085592 369.63420864 -110.41176224 362.69790268 C-110.41185633 361.93878395 -110.41195043 361.17966522 -110.41204738 360.39754289 C-110.41515736 335.96190812 -110.43365276 311.52631512 -110.46011221 287.0906954 C-110.48668214 262.47189002 -110.49739316 237.8531312 -110.48637622 213.23431241 C-110.48485479 209.82862438 -110.48350933 206.4229363 -110.48226929 203.01724815 C-110.48201956 202.34967136 -110.48176983 201.68209456 -110.48151253 200.99428816 C-110.47781258 189.80451912 -110.49389242 178.61483655 -110.51528842 167.42508992 C-110.53254393 157.67964289 -110.53158822 147.93430672 -110.51592073 138.18885731 C-110.50751264 132.63835193 -110.50691413 127.08815685 -110.52853219 121.53768028 C-110.54807591 116.47904465 -110.5442065 111.42096536 -110.52237871 106.362344 C-110.51854366 104.55252765 -110.52292091 102.74266827 -110.53696572 100.93290235 C-110.72587921 74.88332597 -102.28649247 50.56927537 -84.2109375 31.39453125 C-65.48452393 12.7946475 -40.22618782 5.47320524 -14.8984375 1.09765625 C-14.04594421 0.92671951 -13.19345093 0.75578278 -12.31512451 0.57966614 C-8.17795275 -0.0039863 -4.17132191 -0.0269038 0 0 Z M-108.8984375 84.09765625 C-107.8984375 86.09765625 -107.8984375 86.09765625 -107.8984375 86.09765625 Z M720.1015625 322.09765625 C720.1015625 322.42765625 720.1015625 322.75765625 720.1015625 323.09765625 C722.0815625 323.09765625 724.0615625 323.09765625 726.1015625 323.09765625 C726.1015625 322.76765625 726.1015625 322.43765625 726.1015625 322.09765625 C724.1215625 322.09765625 722.1415625 322.09765625 720.1015625 322.09765625 Z M757.1015625 322.09765625 C757.1015625 322.42765625 757.1015625 322.75765625 757.1015625 323.09765625 C758.7515625 323.09765625 760.4015625 323.09765625 762.1015625 323.09765625 C762.1015625 322.76765625 762.1015625 322.43765625 762.1015625 322.09765625 C760.4515625 322.09765625 758.8015625 322.09765625 757.1015625 322.09765625 Z M769.1015625 323.09765625 C773.1015625 324.09765625 773.1015625 324.09765625 773.1015625 324.09765625 Z M617.1015625 395.09765625 C618.1015625 397.09765625 618.1015625 397.09765625 618.1015625 397.09765625 Z M616.1015625 401.09765625 C617.1015625 403.09765625 617.1015625 403.09765625 617.1015625 403.09765625 Z M615.1015625 409.09765625 C615.1015625 410.74765625 615.1015625 412.39765625 615.1015625 414.09765625 C615.4315625 414.09765625 615.7615625 414.09765625 616.1015625 414.09765625 C616.1015625 412.44765625 616.1015625 410.79765625 616.1015625 409.09765625 C615.7715625 409.09765625 615.4415625 409.09765625 615.1015625 409.09765625 Z M614.1015625 964.09765625 C615.1015625 968.09765625 615.1015625 968.09765625 615.1015625 968.09765625 Z M612.1015625 980.09765625 C613.1015625 982.09765625 613.1015625 982.09765625 613.1015625 982.09765625 Z M273.1015625 1171.09765625 C273.1015625 1171.42765625 273.1015625 1171.75765625 273.1015625 1172.09765625 C274.7515625 1172.09765625 276.4015625 1172.09765625 278.1015625 1172.09765625 C278.1015625 1171.76765625 278.1015625 1171.43765625 278.1015625 1171.09765625 C276.4515625 1171.09765625 274.8015625 1171.09765625 273.1015625 1171.09765625 Z M358.1015625 1171.09765625 C358.1015625 1171.42765625 358.1015625 1171.75765625 358.1015625 1172.09765625 C359.7515625 1172.09765625 361.4015625 1172.09765625 363.1015625 1172.09765625 C363.1015625 1171.76765625 363.1015625 1171.43765625 363.1015625 1171.09765625 C361.4515625 1171.09765625 359.8015625 1171.09765625 358.1015625 1171.09765625 Z M287.1015625 1172.09765625 C291.1015625 1173.09765625 291.1015625 1173.09765625 291.1015625 1173.09765625 Z M344.1015625 1172.09765625 C348.1015625 1173.09765625 348.1015625 1173.09765625 348.1015625 1173.09765625 Z " fill="#54A2D5" transform="translate(109.8984375,-0.09765625)"/>
<path d="M0 0 C0.33 0 0.66 0 1 0 C1 310.53 1 621.06 1 941 C0.67 941 0.34 941 0 941 C0 630.47 0 319.94 0 0 Z " fill="#54A2D5" transform="translate(315,0)"/>
</svg>
